<svg xmlns="http://www.w3.org/2000/svg" width="834.25" height="443.64" viewBox="0 0 834.25 443.64"><path d="M369.14,377.34c0,17.57-6,24.19-21.34,30.38l-2.19-6.33c12.45-5.76,15.32-11.09,15.32-24.48V292h8.21Z"/><path d="M451.63,352.72c0,24.33-11.5,39.45-30.37,39.45S391,377.2,391,353s11.62-39.31,30.36-39.31C440.41,313.69,451.63,328.09,451.63,352.72Zm-52.12.28c0,21.17,8.07,32.12,21.75,32.12s22-10.8,22-32.4c0-21.17-8.07-32-21.89-32C407.85,320.75,399.51,331.4,399.51,353Z"/><path d="M523.45,390.59h-6.71l-.54-13.39c-4.93,8.92-12.32,15-23.4,15-12.72,0-20.24-8.21-20.24-23V315.28h7.93v53c0,12,4.79,17,14.23,17s15.87-6.48,20.79-15.41V315.28h7.94Z"/><path d="M585.55,314.56l-1.5,7.92a20.81,20.81,0,0,0-6.3-.87c-9.84,0-15.18,7.49-19,22.9v46.08h-7.93V315.28h6.84l.68,16.84c3.69-12.38,10.26-18.43,20.11-18.43A24,24,0,0,1,585.55,314.56Z"/><path d="M651.76,336.73v53.86h-7.93V337.88c0-12.38-4.65-17.42-13.41-17.42-9.71,0-16.41,6.34-22.16,15.55v54.58h-7.93V315.28h6.84l.68,12.67c5.75-8.5,13.82-14.26,24.08-14.26C644.92,313.69,651.76,322.19,651.76,336.73Z"/><path d="M728.37,386.27l-1.78,5.9c-6.29-1.44-10-4.75-11.08-12.53-5.2,8.36-12.72,12.53-22.3,12.53-13.81,0-22.16-9.07-22.16-22.46,0-15.84,11.36-24.34,29.69-24.34h13.68V338c0-11.95-4.66-17.28-16.56-17.28-5.74,0-12.31,1.58-19.42,4.32l-2.05-6.34c7.93-3.31,15-5,22.57-5,16.28,0,23.39,8.5,23.39,23.91v36.28C722.35,382.24,724.54,384.68,728.37,386.27Zm-14-14.4V351.42H702c-14.37,0-22.44,5.9-22.44,17.86,0,10.36,5.61,16.12,15.05,16.12C703.75,385.4,710,380.65,714.42,371.87Z"/><path d="M748.21,377.92V284.61l7.93-1v94q0,7.33,5.75,7.34a11.86,11.86,0,0,0,5.06-1l2,6.2a17.75,17.75,0,0,1-8.07,2C753.4,392.17,748.21,387.56,748.21,377.92Z"/><path d="M827.41,322l-3.69,5.48c-6.29-4.61-11.63-6.92-18.88-6.92-9.44,0-15.87,4.9-15.87,12.68,0,7.48,4.65,10.65,17.38,14.25,15.73,4.32,23,9.94,23,22.75,0,14-11.49,21.89-25.86,21.89a36.39,36.39,0,0,1-25.58-9.65l4.38-5.32c6.16,5,12.31,7.92,21.2,7.92,10.26,0,17.51-5.19,17.51-14.4s-4-12.39-18.74-16.71c-15.32-4.17-21.48-10.08-21.48-20.59,0-11.52,10.26-19.73,23.81-19.73C813.73,313.69,820.71,316.57,827.41,322Z"/><path d="M118.73,0A119,119,0,0,0,0,119v13C65.38,122.16,114.46,67.38,118.73,0" fill="#00adee"/><path d="M0,161.75v76.31A119,119,0,0,0,119,119V93.46A177.69,177.69,0,0,1,0,161.75" fill="#00adee"/><path d="M273.33,132V119A119,119,0,0,0,154.6,0C158.87,67.38,208,122.16,273.33,132" fill="#1877f9"/><path d="M154.3,93.47V119a119,119,0,0,0,119,119V161.75a177.7,177.7,0,0,1-119-68.28" fill="#1877f9"/><path d="M811.89,38.23,791.26,61.74C776.89,50,763.44,44.46,747.06,44.46c-17.81,0-30.74,8-30.74,23.56,0,14.37,7.76,20.68,40.8,31C791.88,110,816,124.33,816,161.69c0,35.6-27.87,60.9-75.26,60.9-31.61,0-55.68-10.7-72.06-26.8l20.74-23c14.64,12.35,29.76,18.3,50.45,18.3,21.27,0,36.48-8.14,36.48-27.37,0-16.68-8.32-24.15-39.36-33.62-41.65-12.93-59.76-29.59-59.76-59.77,0-33,28.45-54.88,67.53-54.88,29,0,49.88,7,67.12,22.8"/><path d="M472.5,172.32H397.78l-14.59,46H343.83L412.3,19.76h46.83L527.3,218.29H487.08Zm-9-28.73L435,53.24l-28.36,90.35Z"/><polygon points="510.07 19.76 510.07 49.93 567.98 49.93 567.98 218.29 606.19 218.29 606.19 49.93 664.09 49.93 664.09 19.76 510.07 19.76"/></svg>