<?xml version="1.0" encoding="utf-8"?>
<!-- Generator: Adobe Illustrator 25.2.1, SVG Export Plug-In . SVG Version: 6.00 Build 0)  -->
<svg version="1.1" id="Layer_1" xmlns="http://www.w3.org/2000/svg" xmlns:xlink="http://www.w3.org/1999/xlink" x="0px" y="0px"
	 viewBox="0 0 279.9 85.9" style="enable-background:new 0 0 279.9 85.9;" xml:space="preserve">
<style type="text/css">
	.st0{fill:#CE171F;}
</style>
<path class="st0" d="M26.8,11.5c-1-5.1-5.1-7.5-9.9-7.5C8.4,4,4.7,11,4.7,18.4c0,8.1,3.6,14.9,12.1,14.9c6.2,0,9.8-4.4,10.3-10.3
	h4.7c-0.8,8.9-6.4,14.3-15.4,14.3C5.3,37.2,0,29.1,0,18.7C0,8.4,5.9,0,16.9,0c7.4,0,13.6,4,14.7,11.5H26.8L26.8,11.5z"/>
<path class="st0" d="M41.5,6.1h-4.2V0.8h4.2V6.1z M37.4,10.7h4.2v25.7h-4.2V10.7z"/>
<path class="st0" d="M47.9,10.7h4v5.5H52c2.1-4.1,4.9-6.2,9.5-6.1v4.5c-6.8,0-9.3,3.9-9.3,10.4v11.4h-4.2L47.9,10.7L47.9,10.7z"/>
<path class="st0" d="M81.3,18.9c-0.6-3.3-2.9-5.1-6.4-5.1c-6.1,0-8,4.9-8,10.1c0,4.7,2.2,9.5,7.5,9.5c4.1,0,6.5-2.4,7-6.3h4.4
	c-1,6.3-4.9,10.1-11.4,10.1c-7.9,0-12.1-5.5-12.1-13.1c0-7.8,4-13.8,12.1-13.8c5.8,0,10.6,2.8,11.2,8.9L81.3,18.9L81.3,18.9z"/>
<path class="st0" d="M111.9,36.4h-4v-4.1h-0.1c-1.8,3.2-4.7,4.7-8.4,4.7c-6.8,0-8.9-3.9-8.9-9.5v-17h4.2V28c0,3.2,1.9,5.2,5.2,5.2
	c5.1,0,7.6-3.4,7.6-8.1V10.6h4.2V36.4z"/>
<rect x="118.5" y="0.8" class="st0" width="4.2" height="35.5"/>
<path class="st0" d="M152.1,36.4c-0.7,0.5-1.7,0.7-3,0.7c-2.2,0-3.6-1.2-3.6-4c-2.3,2.8-5.5,4-9.1,4c-4.7,0-8.5-2.1-8.5-7.3
	c0-5.8,4.4-7,8.7-7.9c4.7-0.8,8.7-0.6,8.7-3.8c0-3.8-3-4.2-5.7-4.2c-3.6,0-6.2,1.1-6.4,4.9h-4.2c0.2-6.4,5.2-8.6,10.9-8.6
	c4.6,0,9.7,1.1,9.7,7v13.2c0,1.9,0,2.9,1.3,2.9c0.4,0,0.7,0,1.3-0.2L152.1,36.4L152.1,36.4L152.1,36.4z M145.3,23.2
	c-1.7,1.2-4.9,1.2-7.6,1.7c-2.8,0.5-5.2,1.5-5.2,4.6c0,2.8,2.4,3.8,5,3.8c5.6,0,7.9-3.5,7.9-5.8C145.3,27.4,145.3,23.2,145.3,23.2z"
	/>
<path class="st0" d="M161.9,10.7h5.1v3.8h-5.1v15.9c0,1.9,0.5,2.3,3.2,2.3h1.9v3.8h-3.3c-4.4,0-6.1-0.8-6.1-5.6V14.4h-4.4v-3.8h4.4
	V2.9h4.2L161.9,10.7L161.9,10.7z"/>
<path class="st0" d="M176.2,6.1H172V0.8h4.2V6.1z M172,10.7h4.2v25.7H172V10.7z"/>
<path class="st0" d="M193.9,10.1c8.1,0,12.5,5.9,12.5,13.5S202.1,37,193.9,37c-8.1,0-12.5-5.9-12.5-13.5
	C181.4,16,185.8,10.1,193.9,10.1 M193.9,33.2c4.5,0,8-3.5,8-9.7c0-6.3-3.6-9.8-8-9.8c-4.4,0-8,3.5-8,9.8
	C185.9,29.8,189.5,33.2,193.9,33.2"/>
<path class="st0" d="M211.4,10.7h4v4.1h0.1c1.8-3.2,4.7-4.7,8.4-4.7c6.8,0,8.9,3.9,8.9,9.5v17h-4.2V18.9c0-3.2-1.9-5.2-5.2-5.2
	c-5.1,0-7.6,3.4-7.6,8.1v14.6h-4.2V10.7z"/>
<path class="st0" d="M245.6,16.1h-5.5v-5.5h5.6v5.5H245.6z M240,30.9h5.6v5.5H240V30.9z"/>
<polygon class="st0" points="1.8,49.6 6.5,49.6 6.5,64.9 25.2,64.9 25.2,49.6 30,49.6 30,85.2 25.2,85.2 25.2,68.9 6.5,68.9 
	6.5,85.2 1.8,85.2 "/>
<path class="st0" d="M59.1,77.1c-1.1,5.7-5.2,8.7-11,8.7c-8.2,0-12.1-5.7-12.4-13.6c0-7.8,5.1-13.5,12.1-13.5
	c9.1,0,11.9,8.5,11.6,14.8H40.1C40,78,42.6,82,48.2,82c3.5,0,5.9-1.7,6.7-5.1L59.1,77.1L59.1,77.1z M54.9,69.9
	c-0.2-4-3.3-7.3-7.4-7.3c-4.5,0-7,3.3-7.4,7.3H54.9z"/>
<path class="st0" d="M86.6,85.1c-0.7,0.5-1.7,0.7-3,0.7c-2.2,0-3.6-1.2-3.6-4c-2.3,2.8-5.5,4-9.1,4c-4.7,0-8.5-2.1-8.5-7.3
	c0-5.8,4.4-7,8.7-7.9c4.7-0.8,8.7-0.6,8.7-3.8c0-3.8-3-4.2-5.7-4.2c-3.6,0-6.2,1.1-6.4,4.9h-4.2c0.2-6.4,5.2-8.6,10.9-8.6
	c4.6,0,9.7,1.1,9.7,7v13.2c0,1.9,0,2.9,1.3,2.9c0.4,0,0.7,0,1.3-0.2L86.6,85.1L86.6,85.1z M79.8,72c-1.7,1.2-4.9,1.2-7.6,1.7
	c-2.8,0.5-5.2,1.5-5.2,4.6c0,2.8,2.4,3.8,5,3.8c5.6,0,7.9-3.5,7.9-5.8V72z"/>
<path class="st0" d="M90.4,59.5h4v5.5h0.1c2.1-4.1,4.9-6.2,9.5-6.1v4.5c-6.8,0-9.3,3.9-9.3,10.4v11.5h-4.2
	C90.4,85.3,90.4,59.5,90.4,59.5z"/>
<path class="st0" d="M113,59.5h5.1v3.8H113v16c0,1.9,0.5,2.3,3.2,2.3h1.9v3.8h-3.3c-4.4,0-6.1-0.8-6.1-5.6V63.1h-4.4v-3.8h4.4v-7.8
	h4.2V59.5z"/>
<polygon class="st0" points="137.4,49.6 160.8,49.6 160.8,53.6 142.1,53.6 142.1,64.9 158.5,64.9 158.5,68.9 142.1,68.9 142.1,85.2 
	137.4,85.2 "/>
<path class="st0" d="M188.1,85.1c-0.7,0.5-1.7,0.7-3,0.7c-2.2,0-3.6-1.2-3.6-4c-2.3,2.8-5.5,4-9.1,4c-4.7,0-8.5-2.1-8.5-7.3
	c0-5.8,4.4-7,8.7-7.9c4.7-0.8,8.7-0.6,8.7-3.8c0-3.8-3-4.2-5.7-4.2c-3.6,0-6.2,1.1-6.4,4.9H165c0.2-6.4,5.2-8.6,10.9-8.6
	c4.6,0,9.7,1.1,9.7,7v13.2c0,1.9,0,2.9,1.3,2.9c0.4,0,0.7,0,1.3-0.2L188.1,85.1L188.1,85.1z M181.2,72c-1.7,1.2-4.9,1.2-7.6,1.7
	c-2.8,0.5-5.2,1.5-5.2,4.6c0,2.8,2.4,3.8,5,3.8c5.6,0,7.9-3.5,7.9-5.8V72z"/>
<path class="st0" d="M196.5,54.7h-4.2v-5.1h4.2V54.7z M192.2,59.5h4.2v25.7h-4.2V59.5z"/>
<rect x="203.4" y="49.6" class="st0" width="4.2" height="35.5"/>
<path class="st0" d="M235.5,85.2h-4v-4h-0.1c-1.8,3.2-4.7,4.7-8.4,4.7c-6.8,0-8.9-3.9-8.9-9.5v-17h4.2v17.5c0,3.2,1.9,5.2,5.2,5.2
	c5.1,0,7.6-3.4,7.6-8.1V59.5h4.2V85.2L235.5,85.2z"/>
<path class="st0" d="M241.7,59.5h4v5.5h0.1c2.1-4.1,4.9-6.2,9.5-6.1v4.5c-6.8,0-9.3,3.9-9.3,10.4v11.5h-4.2L241.7,59.5L241.7,59.5z"
	/>
<path class="st0" d="M279.6,77.1c-1.1,5.7-5.2,8.7-11,8.7c-8.2,0-12.1-5.7-12.4-13.6c0-7.8,5.1-13.5,12.1-13.5
	c9.1,0,11.9,8.5,11.6,14.8h-19.3c-0.1,4.5,2.4,8.5,8,8.5c3.5,0,5.9-1.7,6.7-5.1L279.6,77.1L279.6,77.1z M275.4,69.9
	c-0.2-4-3.3-7.3-7.4-7.3c-4.5,0-7,3.3-7.4,7.3H275.4z"/>
<polygon class="st0" points="1.8,49.6 6.5,49.6 6.5,64.9 25.2,64.9 25.2,49.6 30,49.6 30,85.2 25.2,85.2 25.2,68.9 6.5,68.9 
	6.5,85.2 1.8,85.2 "/>
<path class="st0" d="M59.1,77.1c-1.1,5.7-5.2,8.7-11,8.7c-8.2,0-12.1-5.7-12.4-13.6c0-7.8,5.1-13.5,12.1-13.5
	c9.1,0,11.9,8.5,11.6,14.8H40.1C40,78,42.6,82,48.2,82c3.5,0,5.9-1.7,6.7-5.1L59.1,77.1L59.1,77.1z M54.9,69.9
	c-0.2-4-3.3-7.3-7.4-7.3c-4.5,0-7,3.3-7.4,7.3H54.9z"/>
<path class="st0" d="M86.6,85.1c-0.7,0.5-1.7,0.7-3,0.7c-2.2,0-3.6-1.2-3.6-4c-2.3,2.8-5.5,4-9.1,4c-4.7,0-8.5-2.1-8.5-7.3
	c0-5.8,4.4-7,8.7-7.9c4.7-0.8,8.7-0.6,8.7-3.8c0-3.8-3-4.2-5.7-4.2c-3.6,0-6.2,1.1-6.4,4.9h-4.2c0.2-6.4,5.2-8.6,10.9-8.6
	c4.6,0,9.7,1.1,9.7,7v13.2c0,1.9,0,2.9,1.3,2.9c0.4,0,0.7,0,1.3-0.2L86.6,85.1L86.6,85.1z M79.8,72c-1.7,1.2-4.9,1.2-7.6,1.7
	c-2.8,0.5-5.2,1.5-5.2,4.6c0,2.8,2.4,3.8,5,3.8c5.6,0,7.9-3.5,7.9-5.8V72z"/>
<path class="st0" d="M90.4,59.5h4v5.5h0.1c2.1-4.1,4.9-6.2,9.5-6.1v4.5c-6.8,0-9.3,3.9-9.3,10.4v11.5h-4.2
	C90.4,85.3,90.4,59.5,90.4,59.5z"/>
<path class="st0" d="M113,59.5h5.1v3.8H113v16c0,1.9,0.5,2.3,3.2,2.3h1.9v3.8h-3.3c-4.4,0-6.1-0.8-6.1-5.6V63.1h-4.4v-3.8h4.4v-7.8
	h4.2V59.5z"/>
<polygon class="st0" points="137.4,49.6 160.8,49.6 160.8,53.6 142.1,53.6 142.1,64.9 158.5,64.9 158.5,68.9 142.1,68.9 142.1,85.2 
	137.4,85.2 "/>
<path class="st0" d="M188.1,85.1c-0.7,0.5-1.7,0.7-3,0.7c-2.2,0-3.6-1.2-3.6-4c-2.3,2.8-5.5,4-9.1,4c-4.7,0-8.5-2.1-8.5-7.3
	c0-5.8,4.4-7,8.7-7.9c4.7-0.8,8.7-0.6,8.7-3.8c0-3.8-3-4.2-5.7-4.2c-3.6,0-6.2,1.1-6.4,4.9H165c0.2-6.4,5.2-8.6,10.9-8.6
	c4.6,0,9.7,1.1,9.7,7v13.2c0,1.9,0,2.9,1.3,2.9c0.4,0,0.7,0,1.3-0.2L188.1,85.1L188.1,85.1z M181.2,72c-1.7,1.2-4.9,1.2-7.6,1.7
	c-2.8,0.5-5.2,1.5-5.2,4.6c0,2.8,2.4,3.8,5,3.8c5.6,0,7.9-3.5,7.9-5.8V72z"/>
<path class="st0" d="M196.5,54.7h-4.2v-5.1h4.2V54.7z M192.2,59.5h4.2v25.7h-4.2V59.5z"/>
<rect x="203.4" y="49.6" class="st0" width="4.2" height="35.5"/>
<path class="st0" d="M235.5,85.2h-4v-4h-0.1c-1.8,3.2-4.7,4.7-8.4,4.7c-6.8,0-8.9-3.9-8.9-9.5v-17h4.2v17.5c0,3.2,1.9,5.2,5.2,5.2
	c5.1,0,7.6-3.4,7.6-8.1V59.5h4.2V85.2L235.5,85.2z"/>
<path class="st0" d="M241.7,59.5h4v5.5h0.1c2.1-4.1,4.9-6.2,9.5-6.1v4.5c-6.8,0-9.3,3.9-9.3,10.4v11.5h-4.2L241.7,59.5L241.7,59.5z"
	/>
<path class="st0" d="M279.6,77.1c-1.1,5.7-5.2,8.7-11,8.7c-8.2,0-12.1-5.7-12.4-13.6c0-7.8,5.1-13.5,12.1-13.5
	c9.1,0,11.9,8.5,11.6,14.8h-19.3c-0.1,4.5,2.4,8.5,8,8.5c3.5,0,5.9-1.7,6.7-5.1L279.6,77.1L279.6,77.1z M275.4,69.9
	c-0.2-4-3.3-7.3-7.4-7.3c-4.5,0-7,3.3-7.4,7.3H275.4z"/>
</svg>
